<?xml version="1.0" encoding="UTF-8"?>
<svg id="Layer_1" xmlns="http://www.w3.org/2000/svg" version="1.1" viewBox="0 0 24 24">
  <!-- Generator: Adobe Illustrator 29.6.1, SVG Export Plug-In . SVG Version: 2.1.1 Build 9)  -->
  <defs>
    <style>
      .st0 {
        fill: #e3e3e3;
      }
    </style>
  </defs>
  <path class="st0" d="M10.4,14.7l-1.2,1.2-1.2-1.2,1.2-1.2-1.4-1.4s-1.2,1.2-1.2,1.1h0c-.4-.4-.9-.6-1.4-.6s-1,.2-1.4.6l-.7.7,2.2,2.2-2.9,2.9c-.2.2-.3.4-.3.7s0,.5.3.7l1.3,1.3h0c.2,0,.4.2.7.2s.5-.1.7-.3l2.9-2.9,2.2,2.2.7-.7c.4-.4.6-.9.6-1.4s-.2-1-.6-1.5h-.1l1.2-1.2-1.4-1.4Z"/>
  <path class="st0" d="M13.1,8.9l4.4-4.1v1.9c.1,0,1.8-1.9,1.8-1.9,0,0-.4,2.1-1.1,2.9-.6.7-3,3.3-3,3.3h0l.8.8s3.4-4.2,4.6-5.6c1.3-1.5,2.2-5.3,2-5.3l-3.2,3.5-.2-3.5-7.2,6.9,1,1h0Z"/>
  <polygon class="st0" points="20.6 22 20.5 22 20.5 22 20.6 22"/>
  <path class="st0" d="M21.7,16.8c.6-.7.9-1.4,1.1-2.3.2-1,.1-2-.2-2.9-.3-.9-.8-1.8-1.5-2.6-.4.2-.9.5-1.3.8-.4.3-.7.6-1.1,1s-.7.8-.9,1.2-.4.9-.5,1.4c0,.5,0,.9,0,1.4.1.5.2,1,.3,1.4l-7.2-7.2c.5-.8.7-1.8.6-2.7,0-.9-.5-1.8-1.2-2.5l-2.8-2.8L.9,7l2.8,2.8c.7.7,1.5,1.1,2.5,1.2s1.9,0,2.7-.6l11.6,11.6,1.4-1.4-2.1-2.1c.7-.5,1.3-1,1.9-1.7ZM6.3,8.9c-.4-.1-.8-.3-1.1-.6l-.5-.5c.4,0,.8,0,1.2,0,.4.1.8.3,1.1.6l.5.5c-.4,0-.8,0-1.2,0ZM8.9,7.5l-.5-.5c-.5-.5-1-.8-1.6-1-.6-.2-1.2-.2-1.8-.2l2-2,1.3,1.4c.3.3.4.7.6,1.1.2.4,0,.8,0,1.2ZM21,14.1c0,.4-.2.8-.5,1.1s-.5.6-.8.9c-.2-.4-.4-.8-.4-1.1s0-.7,0-1.1c.1-.4.2-.8.5-1.1s.5-.6.8-.9c.2.3.4.7.4,1.1v1.1Z"/>
</svg>